<?xml version="1.0" encoding="iso-8859-1"?>
<!-- Generator: Adobe Illustrator 19.0.0, SVG Export Plug-In . SVG Version: 6.00 Build 0)  -->
<svg version="1.1" id="Capa_1" xmlns="http://www.w3.org/2000/svg" xmlns:xlink="http://www.w3.org/1999/xlink" x="0px" y="0px"
	 viewBox="0 0 512 512" style="enable-background:new 0 0 512 512;" xml:space="preserve">
<g>
	<path style="fill:#AD826E;" d="M250.781,54.91c32.087,21.049,60.67,21.71,77.804,12.89c-3.37-32.539-30.86-57.875-64.214-57.8
		c-35.575,0.08-64.35,29.041-64.269,64.685c0.001,0.634,0.012,1.266,0.031,1.895C214.613,76.8,239.484,69.181,250.781,54.91z"/>
	<path style="fill:#FFD3A3;" d="M328.584,67.8c-17.134,8.82-45.718,8.159-77.804-12.89c-11.297,14.271-36.168,21.89-50.647,21.669
		c1.079,34.766,29.586,62.577,64.528,62.498c35.575-0.08,64.35-29.04,64.27-64.685C328.926,72.167,328.809,69.968,328.584,67.8z"/>
	<path style="fill:#FFC766;" d="M313.382,167.514l-104.12-0.143l-46.303-39.307c-38.899-33.021-83.834,17.747-41.598,54.038
		l56.219,48.305l-0.646,59.725c0,0.008,0,0.016,0,0.023v12.781c0,0.998-0.058,1.982-0.17,2.95l-0.052,4.712h165.635l-0.123-80.367
		l56.928-47.631c38.709-32.387,0.224-85.231-39.248-53.034L313.382,167.514z"/>
	<path style="fill:#E63A3B;" d="M342.348,310.599H176.713v17.883V436.69v27.382c0,20.123,15.139,36.587,33.642,36.587
		c19.636,0,33.643-17.732,33.643-36.587V436.69v-68h31.834v68v27.382c0,20.123,15.139,36.587,33.642,36.587
		c19.636,0,33.642-17.732,33.642-36.587C343.115,412.874,342.425,361.718,342.348,310.599z"/>
	<path style="fill:#AD826E;" d="M176.713,436.69V328.482h-25.274h-26.662H58.698h-4.421H32.138
		c-12.176,0-22.138,9.981-22.138,22.181v19.45v44.396c0,12.2,9.962,22.181,22.138,22.181h24.737H176.713z"/>
	<path style="fill:#FF7E40;" d="M124.777,328.482h26.662c13.027,0,23.854-9.922,25.326-22.596l0.17-15.731c0-0.007,0-0.015,0-0.023
		c-0.013-14.038-11.492-24.955-25.496-25.523H54.277v63.873h4.421H124.777z"/>
	<g>
		<path style="fill:#FF984A;" d="M54.277,328.482v-63.873v-63.872c0-5.787-4.725-10.521-10.5-10.521H20.5
			c-5.775,0-10.5,4.733-10.5,10.521v149.926c0-12.2,9.962-22.181,22.138-22.181H54.277z"/>
		<path style="fill:#FF984A;" d="M56.875,436.69H32.138C19.962,436.69,10,426.708,10,414.509v79.645c0,4.315,3.523,7.846,7.83,7.846
			h31.214c4.308,0,7.831-3.531,7.831-7.846V436.69z"/>
	</g>
	<g>
		<rect x="244" y="368.69" style="fill:#AD826E;" width="31.834" height="68"/>
		<path style="fill:#AD826E;" d="M342.398,328.482c0.143,36.05,0.515,72.119,0.659,108.208h112.067h24.737
			c12.176,0,22.138-9.982,22.138-22.181v-63.846c0-12.2-9.962-22.181-22.138-22.181H342.398z"/>
	</g>
	<path style="fill:#FF984A;" d="M455.124,436.69v57.045c0,4.316,3.523,7.847,7.831,7.847h31.213c4.308,0,7.831-3.531,7.831-7.847
		v-79.226c0,12.199-9.962,22.181-22.138,22.181L455.124,436.69L455.124,436.69z"/>
</g>
<path d="M112.894,360.112h-0.292c-5.522,0-10,4.477-10,10s4.478,10,10,10h0.292c5.522,0,10-4.477,10-10
	S118.416,360.112,112.894,360.112z"/>
<path d="M479.862,318.482H352.365c-0.008-2.636-0.014-5.271-0.017-7.898l-0.116-75.686l53.338-44.627
	c20.65-17.278,22.34-39.041,17.036-53.646c-5.976-16.452-20.774-27.083-37.703-27.083c-10.643,0-21.473,4.245-31.318,12.277
	l-43.758,35.692l-96.887-0.133l-43.509-36.936c-10.066-8.544-21.423-13.061-32.845-13.061c-17.58,0-33.5,11.087-39.615,27.588
	c-6.929,18.694-0.246,39.15,17.874,54.719l52.686,45.269l-0.256,23.645c-4.634-2.344-9.86-3.758-15.431-3.984
	c-0.135-0.005-0.271-0.008-0.405-0.008H64.277v-53.873c0-11.315-9.196-20.52-20.5-20.52H20.5c-11.304,0-20.5,9.205-20.5,20.52
	v293.417C0,503.994,7.998,512,17.83,512h31.214c9.832,0,17.831-8.006,17.831-17.846V446.69h99.838v17.382
	c0,25.688,19.577,46.587,43.642,46.587c24.064,0,43.643-20.899,43.643-46.587V446.69h11.834v17.382
	c0,25.688,19.577,46.587,43.642,46.587c24.064,0,43.642-20.899,43.642-46.587c0-5.779-0.011-11.579-0.026-17.382h92.035v47.045
	c0,9.841,7.999,17.847,17.831,17.847h31.213c9.832,0,17.831-8.006,17.831-17.847V350.663
	C511.999,332.918,497.582,318.482,479.862,318.482z M127.878,174.517c-11.682-10.037-16.111-21.919-12.153-32.599
	c3.223-8.696,11.606-14.538,20.861-14.538c6.617,0,13.499,2.872,19.901,8.308l46.303,39.307c1.804,1.531,4.092,2.373,6.458,2.376
	l104.12,0.143h0.014c2.303,0,4.536-0.795,6.32-2.251l46.523-37.948c6.235-5.086,12.693-7.775,18.677-7.775
	c8.415,0,15.835,5.461,18.904,13.91c3.875,10.669-0.264,22.438-11.071,31.48l-56.928,47.631c-2.275,1.903-3.588,4.719-3.583,7.685
	l0.107,70.352H186.935v0.003c0-0.003,0,0,0-0.003l0.645-70.083c0.032-2.953-1.242-5.769-3.482-7.693L127.878,174.517z
	 M151.214,274.609c8.825,0.446,15.712,7.234,15.72,15.531l-0.161,14.92c-1.038,7.568-7.509,13.422-15.334,13.422H64.277v-43.873
	H151.214z M20.5,200.216h23.276c0.252,0,0.5,0.258,0.5,0.52v117.746H32.138c-4.294,0-8.39,0.854-12.138,2.391V200.736
	C20,200.474,20.248,200.216,20.5,200.216z M46.875,492H20v-47.7c3.748,1.537,7.844,2.391,12.138,2.391h14.737V492z M32.138,426.69
	c-6.692,0-12.138-5.464-12.138-12.181v-34.396h62.914c5.522,0,10-4.477,10-10s-4.478-10-10-10H20v-9.449
	c0-6.717,5.445-12.181,12.138-12.181h134.575v88.208H32.138V426.69z M253.997,426.69v-48h11.834v48H253.997z M309.473,490.66
	c-13.036,0-23.642-11.927-23.642-26.587V368.69c0-5.523-4.478-10-10-10h-31.834c-5.522,0-10,4.477-10,10v95.382
	c0,12.787-9.039,26.587-23.643,26.587c-13.036,0-23.642-11.927-23.642-26.587V320.599H332.37c0.008,2.625,0.016,5.25,0.026,7.879
	c0,0.001,0,0.003,0,0.004c0,0.002,0,0.003,0,0.005c0.072,18.219,0.203,36.496,0.33,54.317c0.19,26.636,0.388,54.179,0.388,81.269
	C333.115,476.859,324.076,490.66,309.473,490.66z M352.728,382.661c-0.104-14.518-0.21-29.34-0.284-44.179h127.418
	c6.692,0,12.138,5.464,12.138,12.181v63.846c0,6.717-5.445,12.181-12.138,12.181H353.01
	C352.936,411.888,352.831,397.14,352.728,382.661z M465.124,491.582V446.69h14.737c4.294,0,8.391-0.854,12.138-2.391v47.282
	L465.124,491.582L465.124,491.582z"/>
<path d="M185.858,83.148c1.432,0.901,3.13,1.608,5.032,2.144c5.228,36.011,36.273,63.786,73.622,63.786h0.172
	c41.032-0.092,74.34-33.606,74.247-74.707c-0.001-0.391-0.025-0.776-0.032-1.166c1.459-1.029,2.841-2.117,4.119-3.272
	c4.099-3.702,4.42-10.025,0.718-14.124c-2.143-2.372-5.163-3.47-8.122-3.264C326.213,22.155,297.878,0,264.519,0h-0.171
	c-19.881,0.045-38.553,7.843-52.577,21.958c-11.639,11.715-18.901,26.621-21.012,42.735c-3.17,0.137-6.222,1.777-8.039,4.665
	C179.779,74.033,181.184,80.206,185.858,83.148z M264.639,129.078h-0.127c-26.17,0-48.114-18.657-53.266-43.398
	c14.102-2.192,30.108-8.589,41.082-18.062c25.125,14.577,48.211,17.825,66.109,14.159
	C314.9,108.388,292.152,129.016,264.639,129.078z M225.959,36.054c10.253-10.32,23.902-16.021,38.434-16.054h0.126
	c25.505,0,46.986,17.725,52.831,41.527c-14.623,4.103-36.522,1.135-61.084-14.979c-4.331-2.84-10.112-1.904-13.326,2.155
	c-7.178,9.066-21.117,14.48-32.072,16.729C212.713,54.368,217.901,44.165,225.959,36.054z"/>
<g>
</g>
<g>
</g>
<g>
</g>
<g>
</g>
<g>
</g>
<g>
</g>
<g>
</g>
<g>
</g>
<g>
</g>
<g>
</g>
<g>
</g>
<g>
</g>
<g>
</g>
<g>
</g>
<g>
</g>
</svg>
